<?xml version="1.0" encoding="UTF-8"?><svg id="b" xmlns="http://www.w3.org/2000/svg" viewBox="0 0 163 70.52"><defs><style>.d{fill:#4954a1;}</style></defs><g id="c"><path class="d" d="m36.32,61.2c-1.44.78-3.04,1.17-4.8,1.17-2.04,0-3.69-.63-4.95-1.9-1.26-1.27-1.89-2.95-1.89-5.04s.69-3.89,2.07-5.25c1.38-1.37,3.14-2.05,5.26-2.05,1.53,0,2.82.22,3.86.67v2.36c-1.06-.71-2.32-1.06-3.78-1.06s-2.67.48-3.61,1.45c-.94.97-1.41,2.22-1.41,3.76s.4,2.83,1.21,3.73,1.9,1.36,3.29,1.36c.95,0,1.77-.18,2.46-.55v-3.28h-2.9v-1.92h5.18v6.55Zm10.71.94h-7.74v-13.79h7.43v1.94h-5.14v3.9h4.74v1.93h-4.74v4.08h5.45v1.93Zm14.54,0h-2.5l-6.59-10.13c-.17-.26-.3-.52-.41-.8h-.06c.05.29.08.93.08,1.89v9.04h-2.21v-13.79h2.66l6.36,9.89c.27.41.44.69.52.85h.04c-.06-.37-.1-.98-.1-1.86v-8.88h2.2v13.79Zm11.55,0h-7.74v-13.79h7.43v1.94h-5.14v3.9h4.74v1.93h-4.74v4.08h5.45v1.93Zm13.5,0h-2.67l-2.2-3.69c-.2-.34-.39-.63-.58-.87-.19-.24-.38-.44-.58-.59-.2-.15-.41-.27-.64-.34-.23-.07-.49-.11-.78-.11h-.92v5.6h-2.28v-13.79h4.54c.65,0,1.24.08,1.79.23.54.15,1.02.39,1.42.7.4.31.72.7.95,1.16s.34,1.01.34,1.63c0,.49-.07.93-.22,1.34-.14.41-.35.77-.62,1.09s-.59.59-.96.81c-.38.22-.8.4-1.26.52v.04c.25.14.47.3.65.47.19.17.36.34.53.52.17.18.33.38.5.61.16.23.34.49.54.79l2.45,3.87Zm-8.37-11.93v4.48h1.9c.35,0,.68-.05.98-.16.3-.11.56-.27.77-.47.22-.2.39-.45.51-.75.12-.3.18-.63.18-.99,0-.66-.21-1.18-.62-1.55-.42-.37-1.02-.56-1.8-.56h-1.92Zm22.49,11.93h-2.51l-1.24-3.51h-5.42l-1.19,3.51h-2.5l5.16-13.79h2.58l5.12,13.79Zm-4.36-5.37l-1.91-5.5c-.06-.18-.12-.47-.18-.86h-.04c-.06.36-.12.65-.19.86l-1.89,5.5h4.22Zm14.48-6.47h-3.96v11.84h-2.29v-11.84h-3.95v-1.94h10.2v1.94Zm7.66,12.08c-1.99,0-3.58-.64-4.77-1.93s-1.79-2.96-1.79-5.03c0-2.22.61-3.99,1.83-5.31,1.22-1.32,2.87-1.98,4.96-1.98,1.94,0,3.49.64,4.68,1.92,1.18,1.28,1.77,2.96,1.77,5.03,0,2.25-.61,4.03-1.82,5.34-1.21,1.31-2.83,1.96-4.85,1.96Zm.11-12.24c-1.26,0-2.29.47-3.08,1.41-.79.94-1.19,2.18-1.19,3.72s.38,2.77,1.15,3.7,1.78,1.4,3.02,1.4c1.32,0,2.36-.45,3.12-1.34.76-.89,1.14-2.14,1.14-3.74s-.37-2.92-1.11-3.82c-.74-.9-1.76-1.35-3.06-1.35Zm20.53,12.01h-2.67l-2.2-3.69c-.2-.34-.39-.63-.58-.87-.19-.24-.38-.44-.58-.59-.2-.15-.41-.27-.64-.34-.23-.07-.49-.11-.78-.11h-.92v5.6h-2.28v-13.79h4.54c.65,0,1.24.08,1.79.23.54.15,1.02.39,1.42.7.4.31.72.7.95,1.16s.34,1.01.34,1.63c0,.49-.07.93-.22,1.34-.14.41-.35.77-.62,1.09s-.59.59-.96.81c-.38.22-.8.4-1.26.52v.04c.25.14.47.3.65.47.19.17.36.34.53.52.17.18.33.38.5.61.16.23.34.49.54.79l2.45,3.87Zm-8.37-11.93v4.48h1.9c.35,0,.68-.05.98-.16.3-.11.56-.27.77-.47.22-.2.39-.45.51-.75.12-.3.18-.63.18-.99,0-.66-.21-1.18-.62-1.55-.42-.37-1.02-.56-1.8-.56h-1.92ZM53.67,14.03h-1.96v6.88h1.96c2.66,0,3.99-1.16,3.99-3.48s-1.33-3.4-3.99-3.4Zm-38.62,0h-1.97v6.88h1.97c2.66,0,3.99-1.16,3.99-3.48s-1.33-3.4-3.99-3.4ZM69.82.13h0S0,0,0,0v40.23h0v30.29h163V.13h-93.18Zm-23.09,10.09h7.82c5.59,0,8.38,2.34,8.38,7.04,0,2.22-.8,4.01-2.4,5.38-1.61,1.37-3.75,2.05-6.43,2.05h-2.38v7.61h-5V10.22Zm-19.64,6.31h4.88v2.5h.06c1.17-1.92,2.86-2.88,5.09-2.88,3.51,0,5.26,2.17,5.26,6.5v9.66h-4.88v-8.76c0-2.45-.87-3.67-2.63-3.67-.84,0-1.54.32-2.09.97-.55.64-.82,1.47-.82,2.46v9h-4.88v-15.77Zm-18.98-6.31h7.82c5.59,0,8.38,2.34,8.38,7.04,0,2.22-.8,4.01-2.4,5.38-1.61,1.37-3.75,2.05-6.43,2.05h-2.39v7.61h-4.99V10.22Zm152.61,58.04H2.27v-25.74l65.25.11h0s93.2,0,93.2,0v25.62Zm-90.9-28.02V2.4h90.9v37.83h-90.9Zm20.99-25.57h-5.67v17.66h-4.49V14.67h-5.64v-3.97h15.79v3.97Zm11.12,17.66h-9.89v-16.22h9.52v3.27h-5.11v3.15h4.7v3.27h-4.7v3.26h5.49v3.26Zm17.55,0h-4.74l-.93-3.3h-4.96l-.93,3.3h-4.72l5.6-16.22h5.22l5.46,16.22Zm-6.51-6.41l-1.21-4.09c-.13-.43-.22-.79-.28-1.07s-.1-.56-.12-.84h-.1c-.02.23-.06.48-.13.75-.07.27-.17.65-.3,1.15l-1.11,4.1h3.24Zm27.57,6.41h-4.35v-8.6c0-.53.01-1.09.03-1.67.02-.58.06-1.18.1-1.82h-.1c-.1.5-.2.96-.28,1.37-.09.41-.16.73-.23.97l-2.9,9.74h-3.73l-2.96-9.8c-.06-.14-.13-.4-.22-.78-.09-.38-.19-.87-.3-1.49h-.1c.03.4.05.75.07,1.04.02.29.03.56.05.81s.02.49.03.73c0,.24,0,.51,0,.81v8.67h-3.91v-16.22h6.22l2.48,8.12c.12.39.23.81.33,1.24s.18.85.25,1.23h.07c.1-.44.21-.9.34-1.36.12-.46.23-.84.33-1.13l2.41-8.1h6.36v16.22Zm2.91-.62v-3.92c.67.55,1.4.97,2.17,1.24.78.27,1.57.41,2.37.41.85,0,1.48-.13,1.9-.38s.62-.6.62-1.03c0-.24-.06-.45-.17-.63s-.3-.34-.56-.51c-.26-.16-.61-.34-1.05-.53-.44-.19-.99-.42-1.66-.69-1.27-.53-2.2-1.21-2.8-2.04-.6-.83-.9-1.82-.9-2.96,0-.84.17-1.57.52-2.18s.82-1.11,1.41-1.5c.6-.39,1.28-.68,2.06-.86s1.61-.27,2.49-.27,1.63.05,2.29.15,1.27.26,1.83.47v3.68c-.28-.19-.58-.36-.91-.5-.33-.14-.66-.26-1-.35-.34-.1-.68-.17-1.03-.21-.34-.05-.66-.07-.97-.07-.78,0-1.4.12-1.84.36-.44.24-.66.57-.66.98,0,.19.05.36.15.5.1.14.26.28.5.42.24.14.55.29.94.45.39.16.87.36,1.45.59,1.28.51,2.29,1.2,3.01,2.05.72.85,1.08,1.94,1.08,3.24,0,1.64-.55,2.88-1.66,3.73-1.11.85-2.73,1.27-4.88,1.27-.91,0-1.78-.08-2.58-.23-.81-.15-1.52-.38-2.13-.68Z"/></g></svg>