<?xml version="1.0" encoding="UTF-8" standalone="no"?>
<!DOCTYPE svg PUBLIC "-//W3C//DTD SVG 1.1//EN" "http://www.w3.org/Graphics/SVG/1.1/DTD/svg11.dtd">
<!-- Generated by Microsoft Visio, SVG Export yoTeams_logo_inverse.svg Page-1 -->
<svg xmlns="http://www.w3.org/2000/svg" xmlns:xlink="http://www.w3.org/1999/xlink" xmlns:ev="http://www.w3.org/2001/xml-events"
		xmlns:v="http://schemas.microsoft.com/visio/2003/SVGExtensions/" width="8.60393in" height="3.78257in"
		viewBox="0 0 619.483 272.345" xml:space="preserve" color-interpolation-filters="sRGB" class="st6">
	<v:documentProperties v:langID="8192" v:metric="true" v:viewMarkup="false"/>

	<style type="text/css">
	<![CDATA[
		.st1 {fill:#ffffff;stroke:none;stroke-linecap:butt;stroke-width:3.74152}
		.st2 {fill:#ffffff}
		.st3 {stroke:none;stroke-linecap:butt;stroke-width:3.74152}
		.st4 {fill:none;stroke:none;stroke-linecap:round;stroke-linejoin:round;stroke-width:0.75}
		.st5 {fill:#ffffff;font-family:Segoe UI;font-size:10em;font-weight:bold}
		.st6 {fill:none;fill-rule:evenodd;font-size:12px;overflow:visible;stroke-linecap:square;stroke-miterlimit:3}
	]]>
	</style>

	<g v:mID="0" v:index="1" v:groupContext="foregroundPage">
		<title>Page-1</title>
		<v:pageProperties v:drawingScale="0.0393701" v:pageScale="0.0393701" v:drawingUnits="24" v:shadowOffsetX="9"
				v:shadowOffsetY="-9"/>
		<g id="group29-1" transform="translate(3.74152,-3.74152)" v:mID="29" v:groupContext="group">
			<title>Sheet.29</title>
			<g id="shape7-2" v:mID="7" v:groupContext="shape" transform="translate(194.185,-186.29)">
				<title>Sheet.7</title>
				<path d="M7.48 246.42 L0 246.42 L0 272.35 L7.48 272.35 C17.47 272.35 22.45 267.97 22.45 259.29 C22.45 250.61 17.47
							 246.42 7.48 246.42 Z" class="st1"/>
			</g>
			<g id="shape8-4" v:mID="8" v:groupContext="shape" transform="translate(49.2384,-186.29)">
				<title>Sheet.8</title>
				<path d="M7.48 246.42 L0 246.42 L0 272.35 L7.48 272.35 C17.44 272.35 22.45 267.97 22.45 259.29 C22.45 250.61 17.44
							 246.42 7.48 246.42 Z" class="st1"/>
			</g>
			<g id="shape9-6" v:mID="9" v:groupContext="shape" transform="translate(0,-104.912)">
				<title>Sheet.9</title>
				<path d="M0 112.4 L0 271.93 L261.91 272.35 L261.91 112.84 L0 112.4 ZM82.31 197.33 A35.8063 35.8063 0 0 1 58.18 205.04
							 L49.35 205.04 L49.35 233.62 L30.64 233.62 L30.64 150.71 L59.86 150.71 C80.84 150.71 91.33 159.51 91.33
							 177.12 A25.2178 25.2178 0 0 1 82.31 197.33 ZM159.16 233.62 L140.94 233.62 L140.94 200.69 C140.94 191.52
							 137.65 186.94 131.07 186.96 A9.69053 9.69053 -180 0 0 123.25 190.71 A13.8062 13.8062 -180 0 0 120.14
							 199.95 L120.14 233.62 L101.81 233.62 L101.81 174.39 L120.14 174.39 L120.14 183.78 L120.4 183.78 A20.9525
							 20.9525 0 0 1 139.48 172.97 C152.65 172.97 159.24 181.1 159.24 197.37 L159.16 233.62 ZM227.26 197.33
							 A35.6192 35.6192 0 0 1 203.16 205.04 L194.3 205.04 L194.3 233.62 L175.59 233.62 L175.59 150.71 L204.96
							 150.71 C225.91 150.71 236.4 159.51 236.43 177.12 A25.2552 25.2552 0 0 1 227.33 197.33 L227.26 197.33
							 Z" class="st1"/>
			</g>
			<g id="shape10-8" v:mID="10" v:groupContext="shape" transform="translate(253.675,-104.875)">
				<title>Sheet.10</title>
				<path d="M349.79 121.34 L349.79 263.81 L8.53 263.81 L8.53 121.34 L349.79 121.34 ZM358.33 112.84 L0 112.84 L0 272.35
							 L358.33 272.35 L358.33 112.84 Z" class="st1"/>
			</g>
			<g id="shape11-10" v:mID="11" v:groupContext="shape" transform="translate(91.6672,-31.5036)">
				<title>Sheet.11</title>
				<path d="M44.82 268.15 A37.041 37.041 0 0 1 36.33 271.26 A42.0547 42.0547 0 0 1 26.38 272.35 A33.2621 33.2621 0 0
							 1 15.49 270.66 A24.5818 24.5818 0 0 1 7.18 265.87 A21.5137 21.5137 0 0 1 1.83 258.39 A25.4049 25.4049
							 0 0 1 0 248.51 A24.8063 24.8063 0 0 1 2.06 238.3 A23.0852 23.0852 0 0 1 7.86 230.25 A27.2008 27.2008
							 0 0 1 16.84 224.87 A33.4118 33.4118 0 0 1 28.36 222.99 A51.7078 51.7078 0 0 1 36.29 223.56 A35.4322
							 35.4322 0 0 1 43.03 225.28 L43.03 234.44 A27.9866 27.9866 -180 0 0 28.73 230.96 A19.0817 19.0817 -180
							 0 0 21.63 232.24 A16.4627 16.4627 -180 0 0 16.09 235.68 A15.7518 15.7518 -180 0 0 12.35 241.03 A17.1736
							 17.1736 -180 0 0 11.04 247.88 A19.7178 19.7178 -180 0 0 12.12 254.76 A14.9661 14.9661 -180 0 0 15.19
							 259.92 A13.245 13.245 -180 0 0 20.05 263.18 A16.9117 16.9117 -180 0 0 26.53 264.34 A21.7756 21.7756
							 -180 0 0 30.64 263.96 A13.4695 13.4695 -180 0 0 34.05 262.84 L34.05 252.85 L24.32 252.85 L24.32 245.07
							 L44.86 245.07 L44.82 268.15 Z" class="st1"/>
			</g>
			<g id="shape12-12" v:mID="12" v:groupContext="shape" transform="translate(149.324,-32.3267)">
				<title>Sheet.12</title>
				<path d="M29.93 272.35 L0 272.35 L0 224.6 L28.62 224.6 L28.62 232.5 L10.81 232.5 L10.81 244.28 L27.31 244.28 L27.31
							 252.18 L10.81 252.18 L10.81 264.49 L29.93 264.49 L29.93 272.35 Z" class="st1"/>
			</g>
			<g id="shape13-14" v:mID="13" v:groupContext="shape" transform="translate(190.069,-32.3267)">
				<title>Sheet.13</title>
				<path d="M45.31 272.35 L34.42 272.35 L12.8 242.41 C12.05 241.4 11.37 240.43 10.85 239.57 C10.33 238.71 9.95 238.04
							 9.69 237.55 L9.5 237.55 A22.4491 22.4491 0 0 1 9.73 240.39 C9.73 241.63 9.73 243.09 9.73 244.77 L9.73
							 272.27 L0 272.27 L0 224.6 L11.41 224.6 L32.63 254.09 C33.45 255.17 34.05 256.07 34.46 256.74 C34.87
							 257.42 35.28 258.02 35.58 258.54 C35.58 257.89 35.51 256.99 35.36 255.84 C35.36 254.69 35.36 253.26
							 35.36 251.62 L35.36 224.6 L45.27 224.6 L45.31 272.35 Z" class="st1"/>
			</g>
			<g id="shape14-16" v:mID="14" v:groupContext="shape" transform="translate(250.008,-32.3267)">
				<title>Sheet.14</title>
				<path d="M29.93 272.35 L0 272.35 L0 224.6 L28.73 224.6 L28.73 232.5 L10.81 232.5 L10.81 244.28 L27.31 244.28 L27.31
							 252.18 L10.81 252.18 L10.81 264.49 L29.93 264.49 L29.93 272.35 Z" class="st1"/>
			</g>
			<g id="shape15-18" v:mID="15" v:groupContext="shape" transform="translate(290.753,-32.2145)">
				<title>Sheet.15</title>
				<path d="M40.26 272.23 L27.72 272.23 L20.24 259.36 A21.1396 21.1396 -180 0 0 18.48 256.59 A8.49324 8.49324 -180 0
							 0 16.8 254.83 A4.60207 4.60207 -180 0 0 15 253.9 A6.77215 6.77215 -180 0 0 12.98 253.64 L10.59 253.64
							 L10.59 272.35 L0 272.35 L0 224.49 L17.51 224.49 A22.4491 22.4491 0 0 1 30.79 227.78 A10.8878 10.8878
							 0 0 1 35.43 237.32 A12.3096 12.3096 0 0 1 32.21 245.74 A14.1804 14.1804 0 0 1 28.47 248.59 A20.3164
							 20.3164 0 0 1 23.83 250.42 A10.2143 10.2143 0 0 1 27.57 252.81 A22.6736 22.6736 0 0 1 30.94 257.12 L40.26
							 272.23 ZM24.25 238.26 A5.4252 5.4252 -180 0 0 22.07 233.36 A11.9354 11.9354 -180 0 0 15.6 231.94 L10.7
							 231.94 L10.7 246.12 L14.44 246.12 A15.3402 15.3402 -180 0 0 18.3 245.48 A9.39121 9.39121 -180 0 0 21.44
							 244.02 A6.58507 6.58507 -180 0 0 23.53 241.74 A7.48303 7.48303 -180 0 0 24.25 238.26 Z" class="st1"/>
			</g>
			<g id="shape16-20" v:mID="16" v:groupContext="shape" transform="translate(331.723,-32.3267)">
				<title>Sheet.16</title>
				<path d="M48.9 272.35 L37.34 272.35 L33.34 261.12 L15.38 261.12 L11.64 272.35 L0 272.35 L18.71 224.6 L30.72 224.6
							 L48.9 272.35 ZM30.9 253.64 L25.63 238.48 C25.37 237.74 25.11 236.88 24.88 235.98 A10.8878 10.8878 0
							 0 1 24.43 233.55 L24.21 233.55 C24.21 234.26 23.95 235 23.76 235.9 C23.57 236.8 23.27 237.66 22.97 238.56
							 L17.96 253.53 L30.9 253.64 Z" class="st1"/>
			</g>
			<g id="shape17-22" v:mID="17" v:groupContext="shape" transform="translate(379.165,-32.3267)">
				<title>Sheet.17</title>
				<path d="M39.88 232.72 L25.33 232.72 L25.33 272.35 L14.63 272.35 L14.63 232.72 L0 232.72 L0 224.6 L39.88 224.6 L39.88
							 232.72 Z" class="st1"/>
			</g>
			<g id="shape18-24" v:mID="18" v:groupContext="shape" transform="translate(422.38,-31.5036)">
				<title>Sheet.18</title>
				<path d="M24.54 272.35 A27.6498 27.6498 0 0 1 14.52 270.62 A22.075 22.075 0 0 1 1.76 258.02 A25.7791 25.7791 0 0
							 1 0 248.25 A28.6226 28.6226 0 0 1 1.72 238.07 A23.5341 23.5341 0 0 1 6.77 230.07 A23.2348 23.2348 0
							 0 1 14.78 224.83 A28.9593 28.9593 0 0 1 25.44 222.99 A26.4899 26.4899 0 0 1 35.39 224.79 A22.4491 22.4491
							 0 0 1 42.88 229.88 A21.6634 21.6634 0 0 1 47.74 237.36 A26.1906 26.1906 0 0 1 49.46 247.01 A28.8097
							 28.8097 0 0 1 47.67 257.45 A22.7484 22.7484 0 0 1 42.5 265.39 A23.0477 23.0477 0 0 1 34.61 270.44 A27.6124
							 27.6124 0 0 1 24.54 272.35 ZM25.03 231.19 A13.6191 13.6191 -180 0 0 19.23 232.39 A12.0851 12.0851 -180
							 0 0 14.85 235.75 A16.2008 16.2008 -180 0 0 12.12 240.99 A22.8607 22.8607 -180 0 0 11.19 247.8 A24.0205
							 24.0205 -180 0 0 12.09 254.61 A15.1906 15.1906 -180 0 0 14.74 259.81 A11.5613 11.5613 -180 0 0 18.97
							 263.14 A13.1701 13.1701 -180 0 0 24.62 264.3 A15.2654 15.2654 -180 0 0 30.53 263.22 A11.5239 11.5239
							 -180 0 0 34.83 260 A14.6293 14.6293 -180 0 0 37.45 254.83 A24.4321 24.4321 -180 0 0 38.35 247.91 A25.3301
							 25.3301 -180 0 0 37.49 240.88 A14.4048 14.4048 -180 0 0 34.98 235.6 A10.5885 10.5885 -180 0 0 30.83
							 232.31 A14.0681 14.0681 -180 0 0 25.03 231.11 L25.03 231.19 Z" class="st1"/>
			</g>
			<g id="shape19-26" v:mID="19" v:groupContext="shape" transform="translate(482.656,-32.1022)">
				<title>Sheet.19</title>
				<path d="M40.41 272.12 L27.91 272.12 L20.43 259.25 A25.6294 25.6294 -180 0 0 18.71 256.59 A8.49324 8.49324 -180 0
							 0 17.02 254.83 A4.75173 4.75173 -180 0 0 15.27 253.9 A7.22113 7.22113 -180 0 0 13.21 253.64 L10.81 253.64
							 L10.81 272.35 L0 272.35 L0 224.38 L17.55 224.38 A22.6736 22.6736 0 0 1 30.83 227.67 A10.9626 10.9626
							 0 0 1 35.43 237.21 A11.7858 11.7858 0 0 1 34.57 241.85 A12.2722 12.2722 0 0 1 32.25 245.59 A13.7314
							 13.7314 0 0 1 28.51 248.44 A20.3164 20.3164 0 0 1 23.87 250.27 A10.7007 10.7007 0 0 1 27.61 252.66 A24.245
							 24.245 0 0 1 30.94 256.97 L40.41 272.12 ZM24.39 238.15 A5.31295 5.31295 -180 0 0 22.22 233.25 A11.7858
							 11.7858 -180 0 0 15.79 231.82 L10.85 231.82 L10.85 246 L14.4 246 A15.6395 15.6395 -180 0 0 18.48 245.52
							 A10.1395 10.1395 -180 0 0 21.63 244.06 A6.84698 6.84698 -180 0 0 23.65 241.59 A7.48303 7.48303 -180
							 0 0 24.39 238.15 Z" class="st1"/>
			</g>
			<g id="shape20-28" v:mID="20" v:groupContext="shape">
				<title>Sheet.20</title>
				<path d="M603.24 167.21 L603.24 263.81 L8.53 263.81 L8.53 167.21 L603.43 167.21 L603.24 167.21 ZM611.96 158.68 L0
							 158.68 L0 272.35 L611.78 272.35 L611.78 158.68 L611.96 158.68 Z" class="st2"/>
				<path d="M603.24 167.21 L603.24 263.81 L8.53 263.81 L8.53 167.21 L603.43 167.21M611.96 158.68 L0 158.68 L0 272.35
							 L611.78 272.35 L611.78 158.68 L611.96 158.68" class="st3"/>
			</g>
			<g id="group28-31" transform="translate(268.016,-118.992)" v:mID="28" v:groupContext="group">
				<title>Sheet.28</title>
				<g id="shape22-32" v:mID="22" v:groupContext="shape" transform="translate(0,-2.16164)">
					<title>Sheet.22</title>
					<desc>T</desc>
					<v:textBlock v:margins="rect(4,4,4,4)" v:tabSpace="42.5197"/>
					<v:textRect cx="37.8425" cy="215.511" width="75.69" height="113.667"/>
					<rect x="0" y="158.678" width="75.685" height="113.667" class="st4"/>
					<text x="4" y="251.51" class="st5" v:langID="2057"><v:paragraph/><v:tabList/>T</text>				</g>
				<g id="shape23-35" v:mID="23" v:groupContext="shape" transform="translate(47.3386,-0.281468)">
					<title>Sheet.23</title>
					<desc>e</desc>
					<v:textBlock v:margins="rect(4,4,4,4)" v:tabSpace="42.5197"/>
					<v:textRect cx="37.8425" cy="215.511" width="75.69" height="113.667"/>
					<rect x="0" y="158.678" width="75.685" height="113.667" class="st4"/>
					<text x="4" y="251.51" class="st5" v:langID="2057"><v:paragraph/><v:tabList/>e</text>				</g>
				<g id="shape24-38" v:mID="24" v:groupContext="shape" transform="translate(165.543,0)">
					<title>Sheet.24</title>
					<desc>m</desc>
					<v:textBlock v:margins="rect(4,4,4,4)" v:tabSpace="42.5197"/>
					<v:textRect cx="56.6929" cy="215.511" width="113.39" height="113.667"/>
					<rect x="0" y="158.678" width="113.386" height="113.667" class="st4"/>
					<text x="4" y="251.51" class="st5" v:langID="2057"><v:paragraph/><v:tabList/>m</text>				</g>
				<g id="shape25-41" v:mID="25" v:groupContext="shape" transform="translate(108.507,0)">
					<title>Sheet.25</title>
					<desc>a</desc>
					<v:textBlock v:margins="rect(4,4,4,4)" v:tabSpace="42.5197"/>
					<v:textRect cx="89.4629" cy="215.511" width="178.93" height="113.667"/>
					<rect x="0" y="158.678" width="178.926" height="113.667" class="st4"/>
					<text x="4" y="251.51" class="st5" v:langID="2057"><v:paragraph/><v:tabList/>a</text>				</g>
				<g id="shape26-44" v:mID="26" v:groupContext="shape" transform="translate(272.618,-0.281468)">
					<title>Sheet.26</title>
					<desc>s</desc>
					<v:textBlock v:margins="rect(4,4,4,4)" v:tabSpace="42.5197"/>
					<v:textRect cx="24.7314" cy="215.511" width="49.47" height="113.667"/>
					<rect x="0" y="158.678" width="49.4629" height="113.667" class="st4"/>
					<text x="4" y="251.51" class="st5" v:langID="2057"><v:paragraph/><v:tabList/>s</text>				</g>
			</g>
		</g>
	</g>
</svg>
